<svg id="svg2" xmlns="http://www.w3.org/2000/svg" viewBox="0 0 343.4 259.26"><defs><style>.cls-1{fill:#f9a721;}</style></defs><title>aws</title><g id="g10"><g id="g12"><path id="path14" class="cls-1" d="M191.72,89.39,151.64,76V17.88L191.77,29.8l-.05,59.59"/><path id="path16" class="cls-1" d="M202.18,29.8l40.15-11.92L242.18,76l-40,13.44V29.8"/><path id="path18" class="cls-1" d="M234.14,11.59,196.73,0,159.82,11.59l37,9.93,37.35-9.93"/><path id="path20" class="cls-1" d="M292.81,89.39,252.72,76V17.88L292.86,29.8l-.05,59.59"/><path id="path22" class="cls-1" d="M303.27,29.8,343.4,17.88,343.27,76l-40,13.44V29.8"/><path id="path24" class="cls-1" d="M335.24,11.59,297.82,0,260.9,11.59l37,9.93,37.36-9.93"/><path id="path26" class="cls-1" d="M40.14,114.72,0,102.81v58.1l40.09,13.41,0-59.6"/><path id="path28" class="cls-1" d="M50.55,114.72l40.14-11.91-.14,58.07-40,13.45V114.72"/><path id="path30" class="cls-1" d="M82.52,96.52,45.1,84.92,8.19,96.52l37,9.93,37.37-9.93"/><path id="path32" class="cls-1" d="M141.18,174.33,101.1,160.92V102.81l40.14,11.91-.06,59.61"/><path id="path34" class="cls-1" d="M151.64,114.72l40.13-11.91-.13,58.07-40,13.45V114.72"/><path id="path36" class="cls-1" d="M183.6,96.52l-37.41-11.6-36.92,11.6,37,9.93,37.35-9.93"/><path id="path38" class="cls-1" d="M90.63,259.26,50.55,245.85V187.74l40.14,11.92-.06,59.6"/><path id="path40" class="cls-1" d="M101.1,199.66l40.14-11.92-.14,58.07-40,13.45v-59.6"/><path id="path42" class="cls-1" d="M133.05,181.45l-37.4-11.59L58.72,181.45l37,9.92,37.35-9.92"/></g></g></svg>