<?xml version="1.0" encoding="UTF-8" standalone="no"?>
<svg
   xmlns:dc="http://purl.org/dc/elements/1.1/"
   xmlns:cc="http://creativecommons.org/ns#"
   xmlns:rdf="http://www.w3.org/1999/02/22-rdf-syntax-ns#"
   xmlns:svg="http://www.w3.org/2000/svg"
   xmlns="http://www.w3.org/2000/svg"
   xmlns:xlink="http://www.w3.org/1999/xlink"
   id="svg8"
   version="1.1"
   viewBox="0 0 210 297"
   height="297mm"
   width="210mm">
  <defs
     id="defs2">
    <linearGradient
       id="linearGradient2795">
      <stop
         style="stop-color:#b8b8b8;stop-opacity:0.49803922"
         offset="0"
         id="stop2797" />
      <stop
         style="stop-color:#7f7f7f;stop-opacity:0"
         offset="1"
         id="stop2799" />
    </linearGradient>
    <linearGradient
       id="linearGradient2787">
      <stop
         style="stop-color:#7f7f7f;stop-opacity:0.5"
         offset="0"
         id="stop2789" />
      <stop
         style="stop-color:#7f7f7f;stop-opacity:0"
         offset="1"
         id="stop2791" />
    </linearGradient>
    <linearGradient
       id="linearGradient3676">
      <stop
         style="stop-color:#b2b2b2;stop-opacity:0.5"
         offset="0"
         id="stop3678" />
      <stop
         style="stop-color:#b3b3b3;stop-opacity:0"
         offset="1"
         id="stop3680" />
    </linearGradient>
    <linearGradient
       id="linearGradient3236">
      <stop
         style="stop-color:#f4f4f4;stop-opacity:1"
         offset="0"
         id="stop3244" />
      <stop
         style="stop-color:#ffffff;stop-opacity:1"
         offset="1"
         id="stop3240" />
    </linearGradient>
    <linearGradient
       id="linearGradient4671">
      <stop
         style="stop-color:#ffd43b;stop-opacity:1"
         offset="0"
         id="stop4673" />
      <stop
         style="stop-color:#ffe873;stop-opacity:1"
         offset="1"
         id="stop4675" />
    </linearGradient>
    <linearGradient
       id="linearGradient4689">
      <stop
         style="stop-color:#5a9fd4;stop-opacity:1"
         offset="0"
         id="stop4691" />
      <stop
         style="stop-color:#306998;stop-opacity:1"
         offset="1"
         id="stop4693" />
    </linearGradient>
    <linearGradient
       x1="224.23996"
       y1="144.75717"
       x2="-65.308502"
       y2="144.75717"
       id="linearGradient2987"
       xlink:href="#linearGradient4671"
       gradientUnits="userSpaceOnUse"
       gradientTransform="translate(100.2702,99.61116)" />
    <linearGradient
       x1="172.94208"
       y1="77.475983"
       x2="26.670298"
       y2="76.313133"
       id="linearGradient2990"
       xlink:href="#linearGradient4689"
       gradientUnits="userSpaceOnUse"
       gradientTransform="translate(100.2702,99.61116)" />
    <linearGradient
       x1="224.23996"
       y1="144.75717"
       x2="-65.308502"
       y2="144.75717"
       id="linearGradient2255"
       xlink:href="#linearGradient4671"
       gradientUnits="userSpaceOnUse"
       gradientTransform="matrix(0.562541,0,0,0.567972,-11.5974,-7.60954)" />
    <linearGradient
       x1="172.94208"
       y1="76.176224"
       x2="26.670298"
       y2="76.313133"
       id="linearGradient2258"
       xlink:href="#linearGradient4689"
       gradientUnits="userSpaceOnUse"
       gradientTransform="matrix(0.562541,0,0,0.567972,-11.5974,-7.60954)" />
    <radialGradient
       cx="61.518883"
       cy="132.28575"
       r="29.036913"
       fx="61.518883"
       fy="132.28575"
       id="radialGradient2801"
       xlink:href="#linearGradient2795"
       gradientUnits="userSpaceOnUse"
       gradientTransform="matrix(1,0,0,0.177966,0,108.7434)" />
    <linearGradient
       x1="150.96111"
       y1="192.35176"
       x2="112.03144"
       y2="137.27299"
       id="linearGradient1475"
       xlink:href="#linearGradient4671"
       gradientUnits="userSpaceOnUse"
       gradientTransform="matrix(0.562541,0,0,0.567972,-9.399749,-5.305317)" />
    <linearGradient
       x1="26.648937"
       y1="20.603781"
       x2="135.66525"
       y2="114.39767"
       id="linearGradient1478"
       xlink:href="#linearGradient4689"
       gradientUnits="userSpaceOnUse"
       gradientTransform="matrix(0.562541,0,0,0.567972,-9.399749,-5.305317)" />
    <radialGradient
       cx="61.518883"
       cy="132.28575"
       r="29.036913"
       fx="61.518883"
       fy="132.28575"
       id="radialGradient1480"
       xlink:href="#linearGradient2795"
       gradientUnits="userSpaceOnUse"
       gradientTransform="matrix(2.382716e-8,-0.296405,1.43676,4.683673e-7,-128.544,150.5202)" />
  </defs>
  <metadata
     id="metadata5">
    <rdf:RDF>
      <cc:Work
         rdf:about="">
        <dc:format>image/svg+xml</dc:format>
        <dc:type
           rdf:resource="http://purl.org/dc/dcmitype/StillImage" />
        <dc:title></dc:title>
      </cc:Work>
    </rdf:RDF>
  </metadata>
  <g
     id="layer1">
    <path
       transform="scale(0.26458333)"
       id="path4568"
       d="M 281.181,758.87251 V 601.28871 H 226.63276 172.08453 V 568.96383 536.63895 H 319.5668 467.04907 v 32.21085 32.21086 l -55.55839,1.12418 -55.55839,1.12418 -1.0576,156.57364 -1.05761,156.57364 H 317.49904 281.181 Z"
       style="fill:none;stroke-width:4.04061031" />
    <g
       transform="translate(-55.720262,-255.67696)"
       id="g4714">
      <path
         id="path4728"
         d="m 164.92529,511.00283 c -7.84467,-1.70323 -13.75534,-7.4214 -15.69509,-15.18395 -0.47242,-1.89056 -0.53463,-2.72923 -0.41213,-5.55625 0.0794,-1.83128 0.22045,-3.62926 0.31355,-3.99552 0.16211,-0.63773 -0.26,-0.91384 -9.97008,-6.52152 -25.68902,-14.83567 -34.22698,-19.74418 -34.78837,-19.99996 -0.52495,-0.23918 -0.75898,-0.13507 -1.75028,0.77868 -1.61805,1.49147 -4.464286,3.10833 -6.938222,3.9414 -3.059311,1.03019 -8.037396,1.2013 -11.214733,0.38549 -7.668358,-1.96894 -13.372579,-7.93331 -15.021399,-15.70646 -0.494252,-2.33009 -0.348943,-6.98175 0.290754,-9.30754 1.745358,-6.34574 6.821302,-11.79465 12.917739,-13.86689 l 1.385972,-0.4711 v -26.24428 -26.24427 l -2.187276,-0.88192 c -6.251263,-2.52054 -10.730979,-7.67673 -12.265978,-14.11825 -0.827942,-3.47439 -0.630528,-8.05667 0.484389,-11.24344 2.671125,-7.63488 8.862264,-12.60214 17.068274,-13.69415 5.216077,-0.69413 11.410778,1.21887 15.34169,4.73771 1.13029,1.01181 1.37497,1.12533 1.90496,0.88385 0.33445,-0.15239 4.40638,-2.47088 9.04873,-5.1522 4.64234,-2.68132 14.61053,-8.43566 22.15152,-12.78743 13.15859,-7.59357 13.7041,-7.93905 13.54197,-8.57642 -0.0929,-0.36527 -0.23386,-2.16244 -0.31321,-3.99372 -0.12297,-2.83791 -0.0615,-3.65702 0.41641,-5.54683 2.37,-9.37207 10.24176,-15.58834 19.73977,-15.58834 8.08554,0 15.11965,4.5414 18.49264,11.93932 1.45617,3.1938 1.83289,5.26729 1.6646,9.16209 -0.0799,1.84984 -0.22347,3.67332 -0.31899,4.05217 -0.16638,0.65997 0.0351,0.80858 4.81072,3.54896 2.7414,1.57308 11.47327,6.60452 19.40416,11.18098 20.44486,11.79757 20.19326,11.6536 20.70068,11.84575 0.32004,0.12119 0.85315,-0.17631 1.75152,-0.97743 3.93729,-3.51109 10.18426,-5.4278 15.40406,-4.72631 2.68878,0.36134 6.0547,1.4743 8.11806,2.68426 1.95506,1.14646 6.02482,5.21622 7.17129,7.17128 0.48972,0.83511 1.25481,2.56152 1.70024,3.83646 1.05518,3.02019 1.30267,7.58219 0.58756,10.82984 -1.4568,6.61613 -6.01308,11.96953 -12.368,14.53184 l -2.18729,0.88191 -0.0674,26.2112 c -0.0638,24.78827 -0.0422,26.21986 0.39688,26.37075 6.24067,2.14455 10.35097,5.73393 12.87602,11.24416 2.34318,5.11332 2.35093,11.45338 0.0204,16.54041 -2.73363,5.96649 -7.44204,9.86842 -13.86486,11.49001 -3.16484,0.79903 -7.94959,0.62399 -11.00251,-0.40252 -2.57805,-0.86684 -5.26651,-2.42219 -7.17635,-4.15175 -0.78552,-0.71137 -1.48053,-1.2934 -1.54445,-1.2934 -0.064,0 -5.92651,3.35196 -13.02793,7.44881 -7.10156,4.09684 -17.13854,9.8804 -22.30453,12.85235 -5.16599,2.97195 -9.47424,5.48381 -9.5739,5.58192 -0.0997,0.0981 -0.0122,0.89275 0.1943,1.76587 0.56283,2.37949 0.49215,6.76615 -0.14961,9.28424 -1.96811,7.72248 -7.9439,13.43901 -15.7296,15.04719 -2.38483,0.4926 -5.76568,0.49385 -8.02661,0.003 z m 25.20194,-37.49094 c 3.06347,-1.76608 11.99931,-6.91938 19.85744,-11.45179 7.85812,-4.5324 15.32597,-8.82688 16.5952,-9.54327 1.50823,-0.8513 2.31026,-1.46295 2.3151,-1.76556 0.007,-0.43963 -3.01358,-0.46302 -59.78843,-0.46302 -32.8877,0 -59.79307,0.0893 -59.7897,0.19843 0.003,0.10914 3.9622,2.47613 8.7974,5.25997 4.83519,2.78385 14.90233,8.58814 22.37141,12.89844 7.46908,4.3103 13.7907,7.83691 14.04805,7.83691 0.25735,0 0.69473,-0.25261 0.97194,-0.56134 0.78327,-0.87233 3.43771,-2.59838 5.23023,-3.40095 2.53442,-1.13475 5.26318,-1.7015 8.23838,-1.71108 5.22674,-0.0168 9.45381,1.6451 14.02292,5.5133 0.43656,0.3696 0.96618,0.61102 1.17693,0.5365 0.21076,-0.0745 2.88966,-1.58047 5.95313,-3.34654 z m 39.29389,-35.19604 c 0.74554,-2.09086 2.28748,-4.73509 3.688,-6.32445 0.59672,-0.67718 1.08492,-1.30146 1.08492,-1.38729 0,-0.0858 -5.73248,-10.06882 -12.73885,-22.1844 -7.00636,-12.11559 -17.1725,-29.70787 -22.59142,-39.09397 -23.57031,-40.8261 -24.38301,-42.20251 -24.89861,-42.16888 -0.27115,0.0177 -1.50981,0.16676 -2.75259,0.33127 -2.12308,0.28105 -4.95003,0.12765 -6.96432,-0.37791 -0.58002,-0.14557 -0.75866,0.0279 -1.6944,1.64567 -1.80391,3.11864 -45.06432,77.99039 -51.72279,89.51777 -3.48833,6.03912 -6.52703,11.29706 -6.75267,11.68432 -0.39883,0.68448 -0.37881,0.7398 0.71783,1.98437 1.44025,1.63453 2.978,4.26128 3.73116,6.3735 l 0.58965,1.65365 h 59.85722 59.85722 z M 98.530246,419.00127 c 1.957744,-3.38336 14.430864,-24.96344 27.718044,-47.95573 13.28718,-22.9923 25.0884,-43.41151 26.22494,-45.37605 1.13654,-1.96453 1.96648,-3.6063 1.84432,-3.64838 -0.19963,-0.0688 -5.25319,2.81869 -36.34125,20.76425 l -8.92919,5.15438 0.19794,1.10186 c 0.10887,0.60602 0.19548,2.7092 0.19245,4.67373 -0.005,3.04987 -0.0971,3.84254 -0.63208,5.42396 -2.14349,6.33581 -6.08273,10.58525 -12.062419,13.01225 l -2.116667,0.8591 -0.06744,26.07109 c -0.03995,15.44396 0.03024,26.0711 0.172194,26.0711 0.131794,0 1.841415,-2.7682 3.799155,-6.15156 z m 144.859364,-19.91954 -0.0674,-26.07109 -2.11667,-0.8591 c -6.37521,-2.58754 -10.63889,-7.49688 -12.33461,-14.20251 -0.48146,-1.90398 -0.5426,-2.71437 -0.41838,-5.54683 0.08,-1.82439 0.22283,-3.56583 0.31739,-3.86985 0.15497,-0.49821 -1.67772,-1.61881 -18.56706,-11.35281 -10.30645,-5.94002 -20.4552,-11.79663 -22.55278,-13.01469 -2.09758,-1.21805 -3.90528,-2.18148 -4.01711,-2.14094 -0.11184,0.0405 5.99285,10.78933 13.56598,23.88621 7.57312,13.09687 15.93629,27.56297 18.58483,32.14687 23.1036,39.9862 27.24687,47.09584 27.44583,47.09584 0.12579,0 0.1973,-11.65245 0.16002,-26.0711 z"
         style="fill:#f7d1ea;stroke-width:0.26458335" />
      <path
         id="path4726"
         d="m 164.87321,510.73887 c -4.6266,-0.95184 -8.90546,-3.64377 -11.76506,-7.40167 -3.28273,-4.31394 -4.68352,-9.33862 -4.04351,-14.50425 0.14749,-1.19047 0.28218,-2.45255 0.29931,-2.80462 0.033,-0.67917 1.8003,0.373 -36.21678,-21.56228 -4.65667,-2.68683 -8.67296,-4.96387 -8.92508,-5.0601 -0.31707,-0.12101 -0.84734,0.16775 -1.71979,0.93652 -5.910154,5.20776 -14.918917,6.34148 -22.031174,2.77255 -4.108384,-2.06159 -7.140557,-5.13656 -9.126072,-9.2549 -1.42875,-2.96349 -1.986428,-5.43609 -1.986428,-8.8073 0,-8.58979 5.56623,-16.29687 13.692187,-18.95839 l 1.389063,-0.45496 v -26.40162 -26.40162 l -1.653646,-0.59178 c -5.093901,-1.82292 -9.042397,-5.29504 -11.443388,-10.06277 -1.762085,-3.49903 -2.475638,-7.49704 -1.986997,-11.13304 0.361609,-2.69075 1.475319,-6.05761 2.684264,-8.11479 1.202089,-2.04553 4.996146,-5.79177 7.1081,-7.01852 3.543406,-2.05822 8.694685,-3.14961 12.395624,-2.62623 4.285115,0.60599 7.912793,2.19605 10.911177,4.78252 1.13522,0.97926 1.43,1.11687 1.91586,0.89432 0.31582,-0.14465 7.5989,-4.31221 16.18463,-9.26124 24.13045,-13.9094 28.55748,-16.47974 28.79807,-16.72024 0.12269,-0.12264 0.0805,-0.90963 -0.0937,-1.74887 -0.49967,-2.40693 -0.37221,-6.52785 0.27782,-8.98152 3.66828,-13.84676 20.24177,-19.51226 31.70692,-10.83872 3.29896,2.4957 6.1278,6.77588 7.20065,10.89495 0.62696,2.4071 0.74806,6.54806 0.25939,8.86945 -0.17569,0.83465 -0.25185,1.62693 -0.16922,1.76062 0.0826,0.13369 2.38266,1.52547 5.1112,3.09285 2.72853,1.56738 12.57759,7.24875 21.88679,12.62527 9.30921,5.37652 17.30668,9.9571 17.77216,10.17908 0.84148,0.40127 0.85413,0.39675 2.21245,-0.79148 2.93976,-2.57162 7.38574,-4.43766 11.53554,-4.8416 3.49896,-0.34059 8.46738,0.80599 11.74674,2.71084 2.11195,1.22675 5.906,4.97299 7.10811,7.01852 1.22282,2.08084 2.3296,5.44195 2.68583,8.1565 0.47951,3.65419 -0.22658,7.59246 -1.98858,11.09133 -2.40099,4.76773 -6.34949,8.23985 -11.44339,10.06277 l -1.65364,0.59178 v 26.40162 26.40162 l 1.38906,0.45071 c 6.35079,2.06068 11.46297,7.52222 13.20554,14.10801 0.73835,2.79056 0.73393,7.08708 -0.0103,9.90133 -1.47928,5.59439 -5.39562,10.39611 -10.61561,13.0155 -7.27662,3.65141 -16.35546,2.40211 -22.34861,-3.0753 l -1.49395,-1.36536 -1.10945,0.6169 c -0.61018,0.33929 -7.59836,4.35918 -15.52924,8.93308 -7.93089,4.5739 -17.51542,10.09867 -21.29896,12.27728 -3.78354,2.1786 -7.02722,4.10368 -7.20818,4.27795 -0.24674,0.23762 -0.26004,0.54648 -0.0532,1.23516 0.50631,1.68562 0.7387,5.10129 0.49511,7.27743 -0.68295,6.10143 -4.03755,11.41209 -9.35372,14.80787 -4.16692,2.66173 -9.73528,3.66105 -14.70391,2.63884 z m 22.47956,-35.36707 c 1.82452,-1.04717 10.46107,-6.02397 19.19232,-11.05955 8.73125,-5.03559 17.39897,-10.03085 19.2616,-11.10058 2.81076,-1.61426 3.37313,-2.0394 3.3073,-2.50034 l -0.0793,-0.55538 -59.99427,-0.0667 c -51.4917,-0.0573 -59.99427,-0.0138 -59.99427,0.30648 0,0.21197 3.85789,2.60127 8.92968,5.53042 29.72457,17.16704 36.13964,20.82045 36.55885,20.82045 0.25682,0 0.69377,-0.2526 0.97098,-0.56134 1.41927,-1.58064 5.32264,-3.68018 8.57382,-4.61166 2.59956,-0.7448 7.40036,-0.68732 10.18646,0.12196 3.25101,0.94431 6.65552,2.86159 8.45002,4.75867 0.42741,0.45185 0.89915,0.82154 1.04831,0.82154 0.14916,0 1.764,-0.85678 3.58852,-1.90395 z m 42.48671,-37.42955 c 0.87876,-2.25008 2.75815,-5.31609 3.93499,-6.41939 0.37629,-0.3528 0.68416,-0.73952 0.68416,-0.8594 0,-0.11987 -7.75882,-13.64248 -17.24181,-30.05023 -9.483,-16.40775 -22.8844,-39.5954 -29.78089,-51.52811 -6.89649,-11.93271 -12.69431,-21.85369 -12.88405,-22.04663 -0.2804,-0.28511 -0.56237,-0.29004 -1.5061,-0.0263 -1.49935,0.41902 -6.6437,0.41902 -8.14306,0 -0.94383,-0.26377 -1.2245,-0.25884 -1.49987,0.0263 -0.18632,0.19294 -1.40306,2.19626 -2.70387,4.45184 -5.19419,9.00659 -53.69523,92.94223 -55.39236,95.86171 -0.99921,1.71889 -1.81674,3.1889 -1.81674,3.26669 0,0.0778 0.48821,0.69549 1.08493,1.37267 1.41842,1.60969 3.00141,4.29302 3.6574,6.19968 0.28834,0.83809 0.59662,1.64087 0.68506,1.78397 0.10481,0.16959 21.03603,0.23695 60.11981,0.19346 l 59.95901,-0.0667 z M 101.25096,414.76793 c 3.46683,-6.00273 16.87692,-29.20643 29.80021,-51.56377 12.92329,-22.35735 23.5706,-40.8418 23.66069,-41.07657 0.10816,-0.28186 0.0217,-0.42685 -0.25467,-0.42685 -0.37435,0 -8.665,4.73422 -36.81211,21.02085 -8.02605,4.64408 -8.72497,5.10508 -8.65361,5.70783 0.0427,0.36063 0.14326,2.20351 0.22346,4.09528 0.17302,4.08151 -0.17818,5.96544 -1.72102,9.23196 -2.32142,4.91493 -6.31143,8.57983 -11.280076,10.36097 -0.727604,0.26083 -1.471744,0.58737 -1.653645,0.72565 -0.260615,0.19812 -0.33073,5.73693 -0.33073,26.12656 0,14.23132 0.07227,26.06346 0.1606,26.29364 0.08833,0.23018 0.249923,0.41852 0.359095,0.41852 0.109172,0 3.034988,-4.91133 6.501806,-10.91407 z m 142.30748,10.49555 c 0.0884,-0.23018 0.16061,-12.06232 0.16061,-26.29364 0,-20.38963 -0.0701,-25.92844 -0.33073,-26.12656 -0.18191,-0.13828 -0.92605,-0.46482 -1.65365,-0.72565 -4.96864,-1.78114 -8.95866,-5.44604 -11.28006,-10.36097 -1.54287,-3.26652 -1.89405,-5.15045 -1.72104,-9.23196 0.0802,-1.89177 0.18077,-3.73093 0.22347,-4.08702 0.0896,-0.74758 2.01755,0.42237 -23.99945,-14.56385 -9.16782,-5.28081 -17.66221,-10.18009 -18.87644,-10.88728 -2.19558,-1.27876 -3.12431,-1.58666 -2.88078,-0.95508 0.12016,0.31165 12.8637,22.39375 45.65444,79.11042 7.80333,13.49706 14.26778,24.54011 14.36544,24.54011 0.0977,0 0.24988,-0.18834 0.33819,-0.41852 z"
         style="fill:#f2aada;stroke-width:0.26458335" />
      <path
         id="path4724"
         d="m 163.92056,510.35608 c -6.86274,-1.79946 -12.39902,-7.33233 -14.3037,-14.29492 -0.53653,-1.96129 -0.65085,-7.69639 -0.18458,-9.26041 0.15183,-0.50933 0.22668,-1.07109 0.16633,-1.24837 -0.0603,-0.17728 -0.78567,-0.70496 -1.61183,-1.17263 -0.82616,-0.46767 -7.93149,-4.56042 -15.78961,-9.095 -21.04074,-12.1417 -26.62772,-15.35011 -27.56452,-15.82937 l -0.8416,-0.43055 -1.53965,1.32037 c -4.426629,3.79619 -10.884978,5.51045 -16.49845,4.37924 -8.549849,-1.72295 -14.592321,-7.94037 -16.056629,-16.52153 -0.38568,-2.26016 -0.405,-2.99196 -0.135358,-5.12686 0.172998,-1.36971 0.605444,-3.35021 0.960988,-4.40111 1.846379,-5.45743 6.486792,-10.21398 11.93355,-12.23222 0.873125,-0.32353 1.736328,-0.70115 1.918229,-0.83917 0.260657,-0.19777 0.330729,-5.78694 0.330729,-26.37989 0,-20.59208 -0.07008,-26.18247 -0.330729,-26.38151 -0.181901,-0.13891 -1.257239,-0.6231 -2.389643,-1.07599 -9.000241,-3.59952 -14.102257,-12.98942 -12.222014,-22.49376 0.772578,-3.90526 3.436649,-8.42269 6.562659,-11.12824 7.307847,-6.32489 18.587908,-6.3438 25.926668,-0.0435 l 1.53965,1.32179 0.8416,-0.43078 c 0.46288,-0.23694 3.46098,-1.94125 6.66243,-3.78736 3.20146,-1.84611 12.6074,-7.26392 20.90209,-12.03956 18.78153,-10.81342 17.47529,-10.01612 17.40309,-10.62245 -0.0327,-0.27439 -0.1806,-1.21326 -0.32873,-2.08639 -0.76641,-4.51753 0.18566,-9.34136 2.67556,-13.55625 1.25048,-2.1168 4.51205,-5.34023 6.71789,-6.63934 8.05242,-4.74238 17.98835,-3.47662 24.46448,3.1166 3.01974,3.07433 4.67881,6.23111 5.47475,10.417 0.43459,2.28552 0.35084,6.33355 -0.16734,8.08872 -0.14575,0.49367 -0.20916,0.9879 -0.14092,1.09832 0.0682,0.11041 3.48783,2.13936 7.5991,4.50877 4.11127,2.36942 14.36,8.28326 22.77495,13.14188 13.53713,7.81606 15.35458,8.79358 15.77437,8.48429 0.26093,-0.19227 1.11003,-0.86671 1.88687,-1.49876 1.9612,-1.59569 4.96914,-3.04362 7.78468,-3.74731 2.0075,-0.50174 2.83805,-0.57306 5.29167,-0.45442 5.06309,0.24481 9.33683,2.04942 12.89455,5.44481 5.11262,4.87937 7.24728,11.51191 5.87036,18.23966 -0.84363,4.12195 -2.4561,7.13982 -5.40345,10.11294 -2.18991,2.20904 -4.20511,3.54397 -7.01146,4.64459 -1.01865,0.3995 -2.00091,0.84132 -2.18282,0.98181 -0.48471,0.37437 -0.48471,52.45012 0,52.75484 0.18191,0.11435 1.22598,0.57021 2.32019,1.01302 5.13538,2.07825 9.23134,6.14691 11.24688,11.17195 2.30357,5.74307 1.75596,12.2131 -1.50085,17.73288 -0.48815,0.82737 -1.84007,2.46105 -3.00424,3.63041 -3.10819,3.12205 -6.05713,4.69861 -10.4412,5.58208 -5.70605,1.14987 -12.34958,-0.65981 -16.62464,-4.5285 -0.8758,-0.79256 -1.78853,-1.44103 -2.0283,-1.44103 -0.23973,0 -6.35272,3.41455 -13.58441,7.58789 -7.23169,4.17334 -17.25619,9.9574 -22.27666,12.85348 -5.02046,2.89608 -9.23205,5.36595 -9.35908,5.48859 -0.13104,0.12653 -0.0303,1.23335 0.23289,2.5585 0.84801,4.26991 0.24871,8.62618 -1.74087,12.65425 -2.55984,5.18259 -7.31444,9.04471 -12.89045,10.47082 -2.67055,0.683 -7.37367,0.6772 -10.00347,-0.0124 z m 23.49949,-34.84136 c 1.93304,-1.11409 9.94399,-5.73668 17.80212,-10.27244 7.85812,-4.53575 16.45702,-9.48805 19.10866,-11.00511 2.65163,-1.51707 4.88032,-2.90713 4.95263,-3.08903 0.0723,-0.1819 0.0629,-0.50932 -0.0209,-0.7276 -0.13476,-0.35117 -7.08346,-0.39688 -60.33609,-0.39688 -54.66128,0 -60.17596,0.0383 -60.09826,0.41723 0.0475,0.23164 5.02845,3.27144 11.19805,6.83399 27.95384,16.14151 34.23865,19.73628 34.50535,19.73628 0.15725,0 0.73274,-0.39641 1.27886,-0.88092 4.89401,-4.34185 11.64552,-5.94545 18.11849,-4.30345 3.46339,0.87857 5.57923,2.01194 8.5345,4.57164 0.7251,0.62804 1.34618,1.1419 1.38017,1.1419 0.034,0 1.64338,-0.91152 3.57642,-2.02561 z m 42.4638,-37.38142 c 0.93924,-2.33876 2.7273,-5.25523 3.89062,-6.34586 0.37629,-0.35279 0.68416,-0.86462 0.68416,-1.13741 0,-0.27278 -5.58914,-10.16398 -12.42029,-21.98044 -6.83115,-11.81646 -20.26718,-35.0576 -29.85783,-51.64697 l -17.43755,-30.1625 -1.03227,0.0743 c -0.56775,0.0409 -2.69915,0.0743 -4.73644,0.0743 -2.03729,0 -4.16354,-0.0334 -4.72501,-0.0743 l -1.02084,-0.0743 -4.82177,8.33437 c -37.94824,65.59309 -54.91675,95.09569 -54.91675,95.48197 0,0.25825 0.30787,0.75819 0.68417,1.11098 1.1462,1.07461 2.95217,4.00331 3.83383,6.21725 0.45932,1.1534 0.88802,2.18665 0.95266,2.29611 0.0646,0.10945 27.09705,0.16899 60.07202,0.13229 l 59.95448,-0.0667 z M 95.639128,424.68981 c 0.342405,-0.54571 4.886272,-8.37406 10.097472,-17.39636 5.21121,-9.02229 18.24967,-31.58463 28.97437,-50.13854 10.7247,-18.55391 19.70009,-34.12347 19.94531,-34.59902 0.39281,-0.7618 0.39821,-0.88294 0.0453,-1.01834 -0.34073,-0.13076 -8.03857,4.1724 -20.91695,11.69274 -1.30969,0.76479 -7.38188,4.26966 -13.49375,7.7886 -6.11188,3.51895 -11.21446,6.49437 -11.33907,6.61206 -0.12534,0.11838 -0.074,1.46241 0.11494,3.00826 1.14297,9.35202 -3.86987,17.79603 -12.588372,21.2048 l -2.116667,0.82758 -0.06742,26.5052 c -0.0594,23.35282 -0.02046,26.50521 0.327411,26.50521 0.217154,0 0.674978,-0.44649 1.017384,-0.99219 z m 148.015042,-25.51302 -0.0674,-26.5052 -2.11666,-0.82758 c -6.1277,-2.39582 -10.49118,-7.28154 -12.1874,-13.64607 -0.50681,-1.90173 -0.64159,-5.99533 -0.28773,-8.74101 l 0.22484,-1.74485 -5.51652,-3.1881 c -29.61776,-17.11665 -40.03611,-23.08782 -40.28303,-23.08782 -0.15993,0 -0.29079,0.19494 -0.29079,0.43319 0,0.23825 5.85461,10.56692 13.01024,22.9526 34.14528,59.10205 46.06715,79.7174 46.41714,80.26473 0.20936,0.32742 0.55708,0.59532 0.77271,0.59532 0.34417,0 0.38381,-3.23615 0.32462,-26.50521 z"
         style="fill:#ee8fcf;stroke-width:0.26458335" />
      <path
         id="path4722"
         d="m 166.32842,510.73054 c -0.29104,-0.0674 -1.15533,-0.24918 -1.92064,-0.40399 -6.31625,-1.27777 -12.02723,-6.50126 -14.28119,-13.06215 -0.66272,-1.92907 -0.7315,-2.47757 -0.7315,-5.83345 0,-2.03729 0.0992,-4.24549 0.2204,-4.90711 l 0.22041,-1.20295 -10.27457,-5.92525 c -5.65102,-3.25888 -15.90674,-9.1767 -22.79049,-13.15069 -6.88375,-3.974 -12.63519,-7.22545 -12.78099,-7.22545 -0.14579,0 -1.00254,0.59717 -1.90388,1.32705 -2.203656,1.78445 -5.151903,3.27941 -7.843186,3.97702 -3.130865,0.81156 -8.227894,0.64655 -11.058401,-0.35801 -6.749074,-2.39528 -11.366124,-7.40901 -13.063752,-14.18614 -0.830998,-3.31745 -0.635677,-7.73309 0.483801,-10.93737 1.045819,-2.99343 2.181469,-4.87988 4.307597,-7.15539 2.173155,-2.32585 4.261924,-3.75145 7.278889,-4.96792 l 2.38125,-0.96013 v -26.53495 -26.53495 l -2.38125,-0.96013 c -4.73356,-1.9086 -8.518827,-5.36484 -10.574695,-9.65549 -1.577213,-3.29169 -2.085785,-5.48087 -2.064526,-8.88693 0.05646,-9.0456 5.911808,-16.63508 14.716253,-19.07465 2.99793,-0.83067 7.143805,-0.83488 10.078828,-0.0102 2.637748,0.74112 5.61612,2.2803 7.739192,3.9995 0.90134,0.72988 1.75392,1.32705 1.89462,1.32705 0.14071,0 5.95169,-3.28746 12.91329,-7.30545 6.9616,-4.018 17.22089,-9.93976 22.79842,-13.15948 l 10.14097,-5.85403 -0.21909,-1.19417 c -0.1205,-0.65679 -0.20948,-2.92057 -0.19773,-5.03062 0.0192,-3.45246 0.0916,-4.03166 0.72272,-5.78668 1.05721,-2.93969 2.42192,-5.17549 4.48438,-7.34672 2.22726,-2.34473 4.95826,-4.10922 8.08169,-5.22156 2.18495,-0.77812 2.49922,-0.81902 6.26901,-0.81581 3.65536,0.003 4.13589,0.0616 6.08542,0.74106 3.42716,1.1944 5.32024,2.39491 7.94914,5.04098 2.01255,2.0257 2.58783,2.80803 3.6194,4.92206 1.7667,3.62055 2.15603,5.54025 1.96866,9.70707 -0.0838,1.86439 -0.22849,3.76156 -0.32145,4.21594 -0.16097,0.78675 -0.0953,0.86787 1.3774,1.7018 0.85054,0.48161 7.97581,4.58416 15.83393,9.11676 7.85813,4.5326 17.41952,10.04734 21.24755,12.25497 3.82802,2.20763 7.07917,4.01388 7.22474,4.01388 0.14558,0 1.00216,-0.59717 1.90349,-1.32705 3.76963,-3.05253 8.04082,-4.59001 12.75131,-4.59001 11.00645,0 19.71421,8.66042 19.78297,19.67539 0.0214,3.4445 -0.49392,5.63386 -2.10217,8.9296 -2.11677,4.33779 -5.80953,7.70665 -10.53705,9.61282 l -2.38125,0.96013 v 26.53495 26.53495 l 2.38125,0.95871 c 3.16066,1.2725 4.99456,2.5354 7.40949,5.1025 5.52326,5.87126 6.80567,14.40276 3.28007,21.82145 -2.33635,4.91622 -6.29039,8.41042 -11.68302,10.32429 -2.81453,0.99889 -7.92882,1.16925 -11.02305,0.36718 -3.30157,-0.85581 -7.37504,-3.12171 -9.26242,-5.15231 -0.3528,-0.37955 -0.74049,-0.6901 -0.86157,-0.6901 -0.2935,0 -0.78806,0.28228 -26.41055,15.07383 -5.45703,3.15028 -11.97281,6.90715 -14.47952,8.34861 -2.5067,1.44146 -4.60871,2.7539 -4.67112,2.91654 -0.0624,0.16265 0.0649,1.05971 0.28291,1.99347 0.6294,2.69573 0.35366,8.00934 -0.54758,10.55182 -1.0321,2.91167 -2.64433,5.44422 -4.90445,7.70408 -2.60683,2.60654 -5.48224,4.26182 -9.15003,5.26737 -1.12824,0.30931 -6.52352,0.58933 -7.40833,0.38449 z m 27.29168,-38.65935 c 32.12477,-18.52265 35.67624,-20.61482 35.76358,-21.06838 0.25387,-1.31824 3.87279,-1.24373 -60.40943,-1.24373 -61.79472,0 -60.8737,-0.0147 -60.24372,0.96397 0.10082,0.15663 9.94643,5.91331 21.87914,12.79264 11.93271,6.87933 22.18193,12.78925 22.77605,13.13316 l 1.08021,0.6253 1.8302,-1.41251 c 3.4989,-2.70036 6.32167,-3.90268 10.45441,-4.45292 5.31841,-0.7081 11.36811,1.21444 15.45288,4.91078 0.7276,0.65841 1.4598,1.20245 1.62709,1.20897 0.1673,0.007 4.57262,-2.44925 9.78959,-5.45728 z m 36.18313,-33.29232 c 0.89175,-2.45131 1.70736,-3.92952 3.24456,-5.88054 0.77674,-0.98581 1.48341,-1.93922 1.57043,-2.11869 0.087,-0.17947 -8.121,-14.64556 -18.24004,-32.14687 -10.11904,-17.50131 -23.6283,-40.86932 -30.02059,-51.9289 -10.45197,-18.08342 -11.68594,-20.10455 -12.25388,-20.07071 -0.34735,0.0207 -1.64233,0.16757 -2.87775,0.32638 -1.62232,0.20854 -2.8716,0.20859 -4.49791,1.6e-4 -1.23844,-0.15872 -2.5272,-0.30559 -2.8639,-0.32637 -0.67974,-0.042 2.31441,-5.13768 -39.50328,67.23014 -11.62457,20.11694 -21.13558,36.6501 -21.13558,36.74036 0,0.0903 0.45855,0.71641 1.019,1.39145 2.12817,2.56331 3.08018,4.329 4.40676,8.17322 0.0912,0.26431 12.29434,0.31781 60.3445,0.26459 l 60.23018,-0.0667 z M 95.221274,425.61585 c 0.144571,-0.1819 10.443386,-17.95198 22.886256,-39.48906 12.44287,-21.53709 25.85276,-44.74783 29.79975,-51.57944 3.94699,-6.83161 7.17635,-12.56363 7.17635,-12.73784 0,-0.1742 -0.16467,-0.37992 -0.36593,-0.45715 -0.29598,-0.11358 -13.28456,7.24514 -32.83928,18.60519 -1.45521,0.84538 -5.02709,2.91161 -7.9375,4.59161 -5.05436,2.91757 -5.28761,3.08777 -5.20114,3.79526 0.0498,0.40738 0.10111,2.6457 0.11406,4.97403 0.022,3.95178 -0.0233,4.36305 -0.68096,6.18356 -2.09407,5.79693 -6.41861,10.26145 -11.960162,12.34728 -1.015691,0.3823 -1.935144,0.83411 -2.043226,1.00401 -0.233757,0.36745 -0.276961,52.06772 -0.04402,52.67476 0.192534,0.50174 0.732422,0.54499 1.095798,0.0878 z m 148.601756,-0.0878 c 0.23159,-0.60349 0.19047,-52.30702 -0.0419,-52.66714 -0.10692,-0.16571 -1.10413,-0.65394 -2.21604,-1.08496 -5.50625,-2.13447 -9.93646,-6.78294 -11.79116,-12.37209 -0.615,-1.85334 -0.70469,-2.56104 -0.72083,-5.68854 -0.0101,-1.96453 0.0754,-4.1192 0.19013,-4.78815 l 0.20857,-1.21627 -14.23148,-8.21658 c -7.82732,-4.51913 -18.07023,-10.43094 -22.76201,-13.13738 -4.69179,-2.70643 -8.78357,-4.92079 -9.09284,-4.92079 -0.4236,0 -0.52966,0.12491 -0.42992,0.50631 0.0728,0.27847 2.42832,4.47542 5.23444,9.32656 2.80611,4.85114 16.10565,27.87026 29.55452,51.15359 13.44886,23.28333 24.62359,42.60122 24.83274,42.92865 0.44265,0.69304 1.03587,0.7759 1.26577,0.17679 z"
         style="fill:#eb72c3;stroke-width:0.26458335" />
      <path
         id="path4720"
         d="m 166.14556,510.58268 c -6.69307,-0.86277 -12.87441,-5.71713 -15.47344,-12.15167 -1.1365,-2.8137 -1.48291,-5.06861 -1.27863,-8.32297 0.10048,-1.60073 0.20148,-3.37785 0.22444,-3.94916 l 0.0417,-1.03873 -5.68854,-3.28994 c -15.30642,-8.85237 -38.59075,-22.25062 -39.33836,-22.63603 l -0.84149,-0.43381 -1.40747,1.20897 c -1.99388,1.71268 -4.486307,3.10488 -7.096017,3.96361 -1.996416,0.65694 -2.650054,0.742 -5.820834,0.75756 -3.036506,0.0149 -3.869301,-0.0753 -5.55625,-0.60209 -6.721126,-2.09866 -11.649533,-7.04552 -13.489419,-13.53991 -2.801077,-9.88719 2.345505,-20.10986 11.995994,-23.82767 1.185186,-0.45659 2.242357,-0.96641 2.34927,-1.13294 0.255469,-0.39792 0.253373,-52.33297 -0.0021,-52.7346 -0.108083,-0.1699 -1.028994,-0.62145 -2.04647,-1.00345 -8.002927,-3.00457 -13.078048,-10.24161 -13.088311,-18.66369 -0.0066,-5.414 2.177526,-10.44053 6.167387,-14.19359 2.347778,-2.20844 4.222864,-3.34922 7.259103,-4.41635 2.185853,-0.76825 2.522694,-0.81161 6.278521,-0.80821 3.631424,0.003 4.148656,0.0653 6.085416,0.72957 2.479871,0.85053 4.9928,2.2868 6.96373,3.98014 l 1.40747,1.20924 0.84149,-0.43184 c 0.83915,-0.43065 5.99005,-3.39526 31.53315,-18.14899 l 13.49375,-7.79401 -0.069,-1.1635 c -0.0379,-0.63993 -0.0975,-2.77084 -0.13229,-4.73538 -0.0553,-3.11928 0.0153,-3.82213 0.55686,-5.54692 2.14824,-6.84128 7.32929,-11.87516 14.06419,-13.66468 2.3806,-0.63254 7.46624,-0.63531 9.78958,-0.005 6.82111,1.84959 11.92452,6.80638 14.06476,13.66067 0.54052,1.73106 0.61154,2.44035 0.55629,5.55625 -0.0348,1.96454 -0.0944,4.10173 -0.13229,4.74932 l -0.069,1.17744 2.11666,1.23353 c 6.05746,3.53011 40.46432,23.34479 41.97215,24.17149 l 1.75551,0.96248 1.41949,-1.21951 c 3.55061,-3.05036 7.38566,-4.58333 12.03018,-4.80878 7.03861,-0.34166 13.12175,2.59218 17.20205,8.29637 3.75938,5.25557 4.59073,12.51804 2.13027,18.60957 -2.10429,5.20964 -6.28055,9.23583 -11.68461,11.2647 -1.01746,0.382 -1.93837,0.83355 -2.04645,1.00345 -0.25551,0.40163 -0.2576,52.33668 -0.003,52.7346 0.10692,0.16653 1.18367,0.6839 2.39276,1.14971 11.12301,4.28517 15.95927,17.02148 10.46139,27.55004 -2.45689,4.70505 -6.6512,8.13115 -11.9983,9.80077 -1.68695,0.52675 -2.51973,0.61699 -5.55625,0.60209 -3.17079,-0.0156 -3.82442,-0.10062 -5.82083,-0.75756 -2.74823,-0.90431 -5.29759,-2.35754 -7.22331,-4.11754 -0.7969,-0.72879 -1.63788,-1.32508 -1.86833,-1.32508 -0.44461,0 -0.72205,0.15647 -19.61163,11.0602 -6.69589,3.8651 -15.15092,8.7412 -18.78894,10.83576 -3.63802,2.09457 -6.77832,3.96738 -6.97845,4.16179 -0.3086,0.29978 -0.29333,0.70876 0.10048,2.69213 2.2244,11.20278 -5.5163,21.94223 -16.83862,23.36193 -2.44903,0.30708 -2.78218,0.30586 -5.30585,-0.0195 z m 27.96411,-38.67687 c 4.80219,-2.7654 13.61281,-7.84611 19.57917,-11.29047 5.96635,-3.44435 11.94017,-6.88891 13.27515,-7.65458 2.54561,-1.45999 2.90544,-1.8543 2.457,-2.69225 -0.26887,-0.50238 -1.23997,-0.5095 -60.5225,-0.44386 -60.01666,0.0665 -60.24924,0.0688 -60.24924,0.595 0,0.41534 1.86652,1.60722 8.73125,5.57539 27.20397,15.72532 36.89751,21.28071 37.13252,21.28071 0.14455,0 0.85808,-0.50811 1.58562,-1.12913 1.90858,-1.62914 4.36341,-3.01351 6.7902,-3.82924 1.92353,-0.64658 2.47879,-0.7115 6.08541,-0.7115 3.60663,0 4.16189,0.0649 6.08542,0.7115 2.60127,0.87438 5.00152,2.26828 7.05924,4.0995 l 1.56202,1.39009 0.84875,-0.43659 c 0.46681,-0.24012 4.7778,-2.69917 9.57999,-5.46457 z m 34.85962,-31.47329 c 0.23797,-0.1819 0.73697,-1.14862 1.10895,-2.14826 0.81023,-2.17752 2.11865,-4.38947 3.57545,-6.04445 0.58822,-0.66828 1.06952,-1.40754 1.06952,-1.6428 0,-0.23526 -7.7244,-13.79011 -17.16533,-30.1219 -9.44094,-16.33179 -22.84153,-39.51681 -29.7791,-51.52228 -6.93757,-12.00547 -12.77177,-21.98795 -12.9649,-22.18329 -0.28958,-0.2929 -0.70611,-0.2979 -2.37577,-0.0286 -1.91962,0.30967 -6.17026,0.22019 -8.27097,-0.17411 -0.75418,-0.14156 -0.90399,-0.055 -1.49205,0.86169 -0.35952,0.56048 -10.8646,18.69984 -23.34463,40.30968 -12.48002,21.60985 -25.70914,44.51066 -29.39805,50.8907 -3.68892,6.38004 -6.70712,11.77911 -6.70712,11.99794 0,0.21883 0.4813,0.94465 1.06954,1.61293 1.45677,1.65498 2.76519,3.86693 3.57544,6.04445 0.37196,0.99964 0.87099,1.96636 1.10894,2.14826 0.34315,0.26232 12.75225,0.33073 59.99504,0.33073 47.24279,0 59.6519,-0.0684 59.99504,-0.33073 z M 99.529082,418.4721 c 2.370418,-4.11096 13.498008,-23.36932 24.727998,-42.79636 11.22998,-19.42703 22.76003,-39.37968 25.62235,-44.33924 2.86231,-4.95954 5.2042,-9.21977 5.2042,-9.46715 0,-0.24739 -0.17404,-0.51658 -0.38674,-0.5982 -0.22304,-0.0856 -6.35465,3.29628 -14.48594,7.98968 -7.75456,4.47596 -17.9092,10.33324 -22.56587,13.01619 -4.65666,2.68295 -8.63152,5.03497 -8.83301,5.22671 -0.30815,0.29323 -0.31268,0.69368 -0.0285,2.52053 1.47755,9.49812 -3.88638,18.62116 -12.834329,21.82879 -0.727604,0.26083 -1.471745,0.58737 -1.653646,0.72565 -0.260691,0.19818 -0.330729,5.83827 -0.330729,26.63326 0,14.51001 0.07937,26.46122 0.17639,26.55823 0.666763,0.66676 1.253448,-0.12793 5.387816,-7.29809 z M 243.91875,399.32326 c 0.0534,-20.99975 -0.003,-26.54337 -0.26458,-26.74351 -0.18259,-0.13886 -0.92731,-0.46587 -1.65492,-0.7267 -5.93894,-2.12897 -10.37942,-6.84918 -12.34249,-13.11996 -0.53737,-1.71652 -0.61085,-2.44261 -0.56137,-5.54693 0.0313,-1.96453 0.09,-4.04301 0.13039,-4.61884 l 0.0735,-1.04697 -3.70416,-2.15356 c -3.03404,-1.76395 -19.09684,-11.03391 -30.55938,-17.63603 -1.38245,-0.79626 -4.51805,-2.60663 -6.968,-4.02306 -4.45727,-2.57694 -5.3865,-2.87912 -5.14447,-1.67294 0.0653,0.32562 8.48338,15.05812 18.70675,32.7389 10.22337,17.68078 23.66572,40.93233 29.87189,51.6701 9.52024,16.47169 11.36722,19.51129 11.81672,19.44688 0.52935,-0.0759 0.53316,-0.24422 0.60015,-26.56738 z"
         style="fill:#e963bd;stroke-width:0.26458335" />
      <path
         id="path4718"
         d="m 164.74092,510.2416 c -7.11818,-1.6273 -12.81712,-7.05459 -14.66536,-13.9663 -0.91997,-3.44036 -0.95515,-6.12839 -0.13313,-10.17404 0.16287,-0.80155 0.10313,-0.8703 -1.64438,-1.89227 -2.02235,-1.18272 -20.90225,-12.07666 -34.4548,-19.88087 -4.85591,-2.79626 -9.10133,-5.20823 -9.43427,-5.35993 -0.52835,-0.24073 -0.83564,-0.0926 -2.41587,1.16481 -2.306982,1.83565 -3.900821,2.74282 -6.182453,3.51885 -5.309756,1.80596 -10.605595,1.37986 -15.729164,-1.26557 -2.990766,-1.5442 -6.470793,-5.03446 -8.02983,-8.05342 -1.562123,-3.02495 -2.204537,-5.6448 -2.224476,-9.0717 -0.04882,-8.39074 4.962464,-15.60145 12.892897,-18.55155 0.873125,-0.3248 1.736328,-0.70346 1.918229,-0.84147 0.260697,-0.1978 0.33073,-5.83987 0.33073,-26.64448 0,-20.80461 -0.07003,-26.44667 -0.33073,-26.64447 -0.181901,-0.13802 -1.045104,-0.51668 -1.918229,-0.84148 -2.908056,-1.08179 -4.945581,-2.41454 -7.291308,-4.76926 -3.835178,-3.84989 -5.639628,-8.20908 -5.650304,-13.65 -0.0068,-3.47606 0.494398,-5.6802 1.990458,-8.75311 2.47837,-5.09058 6.857394,-8.65462 12.670946,-10.31274 2.375794,-0.67761 7.400557,-0.67976 9.789583,-0.004 2.678883,0.75755 5.346108,2.12955 7.559831,3.88871 1.78004,1.41453 2.10212,1.57782 2.6341,1.33544 0.85998,-0.39184 45.18916,-25.97128 45.45935,-26.23159 0.12268,-0.1182 0.0695,-0.91225 -0.11813,-1.76455 -0.48184,-2.18844 -0.42249,-6.73235 0.11528,-8.82569 0.24299,-0.94588 0.99414,-2.84429 1.66922,-4.21868 1.01332,-2.06301 1.62478,-2.89839 3.50545,-4.78916 2.47586,-2.48917 4.51785,-3.78647 7.73614,-4.91488 1.55987,-0.54693 2.61219,-0.70986 5.25751,-0.81405 4.19571,-0.16525 6.37284,0.26972 9.78454,1.95489 2.10811,1.04127 2.91035,1.63444 4.92238,3.63951 2.03081,2.02381 2.59525,2.78551 3.63774,4.90904 0.67867,1.38245 1.43276,3.28745 1.67575,4.23333 0.53776,2.09334 0.59711,6.63725 0.11527,8.82569 -0.18765,0.8523 -0.24081,1.64934 -0.11812,1.77121 0.27374,0.2719 44.08138,25.56364 45.23234,26.11427 0.82053,0.39255 0.83209,0.38761 2.8565,-1.22111 3.88167,-3.08462 7.56388,-4.37871 12.45923,-4.37871 3.67614,0 5.46057,0.40741 8.7531,1.99841 8.37597,4.04739 12.67383,13.66181 10.15198,22.71009 -1.68756,6.05488 -6.30684,11.04122 -12.2905,13.26712 -0.87312,0.3248 -1.73633,0.70346 -1.91823,0.84148 -0.26069,0.1978 -0.33073,5.83986 -0.33073,26.64447 0,20.80461 0.07,26.44668 0.33073,26.64448 0.1819,0.13801 1.04511,0.51667 1.91823,0.84147 2.93262,1.09092 4.94448,2.40763 7.28313,4.76656 3.85294,3.88638 5.64539,8.22119 5.64539,13.6527 0,3.49911 -0.62751,6.04182 -2.28166,9.24544 -1.53636,2.97546 -5.03722,6.47794 -8.00828,8.01197 -7.23743,3.73688 -15.02645,3.03943 -21.55629,-1.93021 -0.80036,-0.60913 -1.68201,-1.36015 -1.95924,-1.66892 -0.2772,-0.30877 -0.61113,-0.5614 -0.74202,-0.5614 -0.13092,0 -5.67865,3.14107 -12.32828,6.98017 -6.64964,3.8391 -16.79322,9.68721 -22.54129,12.9958 -5.74808,3.3086 -10.58716,6.18555 -10.75353,6.39324 -0.22935,0.28629 -0.20241,0.74262 0.11138,1.88701 0.58019,2.11596 0.55395,7.07385 -0.0492,9.2993 -1.81079,6.68111 -6.53929,11.75159 -12.98884,13.92827 -1.75127,0.59104 -2.6876,0.72995 -5.42396,0.80467 -2.16623,0.0592 -3.855,-0.0349 -4.89479,-0.27261 z m 19.97546,-32.83326 c 0.42179,-0.21812 8.00612,-4.57572 16.85405,-9.68355 8.84794,-5.10783 18.58747,-10.72222 21.64341,-12.47642 3.05593,-1.7542 5.76461,-3.36818 6.01927,-3.58663 0.57465,-0.49294 0.59385,-1.20485 0.0472,-1.75147 -0.37552,-0.37553 -6.21313,-0.41577 -60.30611,-0.41577 -54.19331,0 -59.93003,0.0397 -60.30775,0.41742 -0.26349,0.26349 -0.33732,0.56055 -0.20021,0.80555 0.265,0.47353 45.4332,26.55828 45.98816,26.55828 0.21686,0 1.12998,-0.59528 2.02916,-1.32284 2.11944,-1.71492 4.58532,-2.99754 7.2109,-3.75072 2.97773,-0.85421 7.58175,-0.85421 10.55948,0 2.79022,0.80041 5.29585,2.14864 7.48218,4.02602 0.98459,0.84546 1.88538,1.54609 2.00174,1.55695 0.11637,0.0109 0.55668,-0.15871 0.97847,-0.37682 z m 45.38797,-38.93767 c 1.01256,-2.59266 1.61642,-3.62921 3.47303,-5.96154 0.77573,-0.9745 1.41041,-1.83993 1.41041,-1.92318 0,-0.0833 -3.76766,-6.66781 -8.3726,-14.63235 -4.60493,-7.96454 -13.87476,-24.00598 -20.59962,-35.64765 -6.72486,-11.64166 -16.42252,-28.42948 -21.55034,-37.30625 -5.12783,-8.87677 -9.47417,-16.29744 -9.65854,-16.49037 -0.27539,-0.2882 -0.54242,-0.29061 -1.49632,-0.0135 -1.51083,0.43886 -7.16141,0.43886 -8.67223,0 -0.95396,-0.27711 -1.2198,-0.2747 -1.49006,0.0135 -0.18092,0.19293 -3.00414,4.99423 -6.27383,10.66954 -3.26968,5.67531 -11.27967,19.54609 -17.79997,30.82396 -29.68071,51.33736 -36.11357,62.48961 -36.11357,62.60786 0,0.0696 0.63768,0.92394 1.41707,1.89844 1.76147,2.20243 2.59775,3.64182 3.48424,5.997 0.38057,1.01111 0.75035,1.93285 0.82171,2.04832 0.0714,0.11546 27.23037,0.17991 60.35335,0.14322 l 60.2236,-0.0667 z M 95.339826,425.74814 c 0.219247,-0.25466 8.854094,-15.10771 19.188564,-33.00677 10.33445,-17.89906 23.71055,-41.05672 29.72466,-51.46146 6.0141,-10.40474 10.94106,-19.15583 10.9488,-19.44687 0.009,-0.34612 -0.18326,-0.55729 -0.55635,-0.61046 -0.49807,-0.071 -6.64731,3.35404 -20.06708,11.17698 -1.30969,0.76347 -7.62,4.40048 -14.02292,8.08223 -6.40292,3.68176 -11.79558,6.83535 -11.98369,7.008 -0.27276,0.25033 -0.2793,0.57763 -0.0323,1.61608 0.51057,2.14657 0.3838,6.81075 -0.24959,9.18324 -0.80205,3.00427 -2.44503,5.96532 -4.57608,8.24723 -2.22899,2.38677 -4.119234,3.67449 -7.235412,4.92907 l -2.38125,0.9587 -0.06819,26.5628 c -0.03751,14.60954 -0.01148,26.71162 0.05784,26.89352 0.180044,0.47246 0.787583,0.40832 1.253009,-0.13229 z M 243.85134,399.24788 v -26.82375 l -2.38125,-0.95871 c -3.11619,-1.2546 -5.00645,-2.54232 -7.23541,-4.92908 -2.1328,-2.28377 -3.77594,-5.2465 -4.57398,-8.24723 -0.65281,-2.45467 -0.77446,-6.88876 -0.24776,-9.03 0.29179,-1.18618 0.28933,-1.46686 -0.0153,-1.74527 -0.19963,-0.18247 -3.33955,-2.03867 -6.97757,-4.1249 -3.63802,-2.08624 -13.79494,-7.9386 -22.57093,-13.00526 -8.77594,-5.06666 -16.19132,-9.2121 -16.47856,-9.2121 -0.28725,0 -0.5888,0.17337 -0.67012,0.38528 -0.0855,0.22268 6.5804,12.03058 15.79524,27.97969 8.76869,15.17692 22.06478,38.19097 29.54688,51.14232 7.48207,12.95135 13.89816,24.00186 14.25797,24.55667 0.41296,0.63674 0.81954,0.97692 1.10252,0.92242 0.41783,-0.0805 0.44831,-1.90947 0.44831,-26.91008 z"
         style="fill:#e64cb3;stroke-width:0.26458335" />
      <path
         id="path4716"
         d="m 164.21175,509.92446 c -2.61099,-0.62518 -6.13046,-2.53141 -8.25681,-4.47209 -4.45705,-4.06787 -6.71506,-9.57831 -6.33962,-15.47121 0.0883,-1.38542 0.27683,-2.91273 0.41903,-3.39401 0.14219,-0.48128 0.1947,-1.04141 0.11668,-1.24473 -0.078,-0.20332 -2.60175,-1.79036 -5.60828,-3.52675 -3.00653,-1.7364 -12.01485,-6.93193 -20.0185,-11.54563 -8.00364,-4.61371 -15.74271,-9.08565 -17.19792,-9.93766 -1.4552,-0.852 -2.85112,-1.62657 -3.10204,-1.72127 -0.31757,-0.11984 -0.99585,0.27576 -2.23198,1.3018 -2.131639,1.76934 -4.549322,3.07466 -7.233684,3.90548 -2.58077,0.79876 -7.657021,0.86693 -10.31875,0.13857 -8.899978,-2.43542 -15.163142,-11.10602 -14.460411,-20.01871 0.588658,-7.46591 5.318202,-14.04505 12.058632,-16.77443 0.934593,-0.37844 1.848824,-0.68807 2.031622,-0.68807 0.182798,0 0.519459,-0.1871 0.748133,-0.41578 0.372425,-0.37242 0.415774,-3.17042 0.415774,-26.83631 0,-23.66589 -0.04335,-26.46388 -0.415774,-26.83631 -0.228674,-0.22867 -0.535789,-0.41577 -0.682477,-0.41577 -0.146688,0 -1.060918,-0.31562 -2.031622,-0.70137 -7.718594,-3.06731 -12.594876,-10.69219 -12.141824,-18.98576 0.384434,-7.03751 4.352337,-13.19078 10.507437,-16.29453 4.02163,-2.02793 9.121305,-2.65443 13.236224,-1.62607 2.925127,0.73101 6.042527,2.29123 8.23879,4.12341 0.96899,0.80836 1.84635,1.46973 1.94969,1.46973 0.44142,0 46.13268,-26.52821 46.25922,-26.85797 0.0768,-0.20008 0.0241,-0.75756 -0.11704,-1.23884 -0.46724,-1.59318 -0.59521,-5.54386 -0.24689,-7.62194 1.16202,-6.93252 5.93466,-12.72352 12.4439,-15.0991 7.44407,-2.71674 15.52567,-0.78797 20.9278,4.99466 2.09258,2.23997 3.23169,4.1336 4.28599,7.12492 0.75676,2.1471 0.81735,2.58151 0.82145,5.88994 0.002,1.96556 -0.13359,4.02695 -0.30247,4.5838 -0.16879,0.55656 -0.24322,1.17785 -0.1654,1.38066 0.0778,0.2028 4.14857,2.68204 9.0461,5.5094 4.89753,2.82737 15.03633,8.68006 22.53065,13.00597 7.49432,4.32591 13.88607,7.98505 14.20392,8.13142 0.49704,0.22891 0.83007,0.0557 2.38125,-1.23813 2.23522,-1.86447 5.33842,-3.42271 8.28037,-4.15793 1.86013,-0.46486 2.74209,-0.53659 5.15938,-0.41961 7.17129,0.34704 13.17707,4.10162 16.38326,10.24216 3.35452,6.42458 2.92949,14.09733 -1.10929,20.02627 -1.27921,1.87787 -3.69258,4.21126 -5.62835,5.44187 -1.35088,0.85877 -4.64548,2.31704 -5.23478,2.31704 -0.14669,0 -0.45382,0.1871 -0.6825,0.41577 -0.37242,0.37243 -0.41576,3.17042 -0.41576,26.83631 0,23.66589 0.0433,26.46389 0.41576,26.83631 0.22868,0.22868 0.56534,0.41578 0.74814,0.41578 0.62167,0 3.68133,1.35963 5.16395,2.29471 3.12098,1.9684 6.16392,5.58887 7.53655,8.96694 4.3003,10.58312 -1.27013,22.35285 -12.2769,25.9398 -1.97324,0.64305 -2.67065,0.7346 -5.68854,0.74679 -2.88867,0.0117 -3.75592,-0.085 -5.41465,-0.60351 -3.34092,-1.04437 -6.03276,-2.6223 -8.51276,-4.9901 -0.86465,-0.82552 -1.02653,-0.88635 -1.5875,-0.59653 -0.65553,0.33868 -15.04925,8.59579 -19.14551,10.98303 -1.30969,0.76327 -7.67953,4.4432 -14.15521,8.17762 -6.47568,3.73442 -11.8877,6.90293 -12.02672,7.04113 -0.16058,0.15963 -0.1318,0.80557 0.0789,1.77121 1.47547,6.76134 -0.22508,13.36126 -4.66734,18.11423 -2.45985,2.63188 -6.20814,4.81958 -9.64674,5.63034 -2.09907,0.49492 -7.20671,0.48016 -9.32458,-0.0269 z m 42.64182,-45.01798 c 17.06086,-9.82851 22.88748,-13.30759 23.00062,-13.7337 0.0833,-0.31386 0.018,-0.82013 -0.14518,-1.12504 l -0.2967,-0.55438 -60.51382,0.0667 -60.51382,0.0667 v 0.75519 c 0,0.71908 0.65801,1.13488 13.75833,8.69399 7.56708,4.36633 17.77743,10.25884 22.68966,13.09448 4.91223,2.83563 9.15525,5.21425 9.42894,5.28582 0.32994,0.0863 1.06486,-0.33073 2.18117,-1.23766 1.8954,-1.53988 4.87185,-3.12916 7.23982,-3.8657 1.24745,-0.38801 2.40927,-0.49243 5.42395,-0.48748 3.49479,0.006 4.02238,0.0712 5.92406,0.73451 2.93661,1.02437 6.34683,3.13203 7.94143,4.90815 0.27722,0.30877 0.62292,0.56141 0.76824,0.56141 0.14532,0 10.54631,-5.92336 23.1133,-13.16302 z m 22.57797,-24.40782 c 0.29105,-0.29104 0.52917,-0.73203 0.52917,-0.97998 0,-0.90984 2.38284,-5.2885 3.82262,-7.02439 1.44246,-1.73911 1.47172,-1.80632 1.10003,-2.52507 -0.21,-0.40612 -4.33519,-7.5793 -9.16708,-15.94041 -4.83189,-8.36112 -13.04916,-22.5839 -18.26061,-31.60619 -5.21144,-9.02229 -14.64035,-25.33385 -20.95312,-36.24792 l -11.47776,-19.84375 -1.17318,0.0714 c -1.5186,0.0925 -8.24018,0.0925 -9.7409,0 l -1.15938,-0.0714 -5.74253,9.92188 c -35.44647,61.24401 -54.09441,93.63341 -54.1918,94.12512 -0.085,0.42934 0.26323,1.05525 1.25135,2.24896 1.35339,1.63498 3.71944,6.01904 3.71944,6.89177 0,0.24795 0.23813,0.68894 0.52917,0.97998 0.52605,0.52605 0.88194,0.52917 60.45729,0.52917 59.57536,0 59.93125,-0.003 60.45729,-0.52917 z M 95.354727,426.01272 c 0.227441,-0.25466 3.441189,-5.70177 7.141663,-12.10468 3.70047,-6.40292 17.18241,-29.72881 29.95986,-51.83532 18.3224,-31.69992 23.17476,-40.28237 22.96217,-40.61354 -0.14825,-0.23094 -0.55688,-0.41714 -0.90806,-0.41378 -0.35118,0.003 -3.55078,1.68546 -7.11022,3.73799 -3.55945,2.05253 -13.02016,7.50743 -21.02381,12.12201 -8.00364,4.61458 -15.3696,8.86938 -16.36879,9.45513 l -1.81671,1.06499 0.16542,1.35897 c 0.81905,6.72868 0.17484,10.36166 -2.64182,14.89832 -2.14826,3.4601 -6.467425,6.82765 -10.294346,8.02626 -0.582083,0.18231 -1.207161,0.44959 -1.389062,0.59397 -0.260662,0.20689 -0.330729,5.91436 -0.330729,26.93987 0,25.1279 0.02689,26.69304 0.463021,26.94706 0.630581,0.36728 0.716504,0.3545 1.191413,-0.17725 z M 244.24821,399.24675 c 0,-21.02858 -0.0701,-26.73682 -0.33073,-26.94371 -0.1819,-0.14438 -0.80698,-0.41166 -1.38906,-0.59397 -2.16342,-0.67759 -5.18832,-2.46975 -7.00061,-4.14767 -4.42926,-4.10081 -6.68639,-9.68731 -6.23197,-15.42427 0.10991,-1.38757 0.21516,-3.03973 0.23392,-3.67148 l 0.0341,-1.14864 -10.18646,-5.88086 c -5.60255,-3.23448 -15.82762,-9.13666 -22.72236,-13.11597 -6.89474,-3.97931 -12.80756,-7.28704 -13.1396,-7.35052 -0.83301,-0.15924 -1.27208,0.67235 -0.8163,1.54608 0.18368,0.35212 6.80229,11.83209 14.70802,25.51105 7.90574,13.67895 21.21332,36.71755 29.57241,51.19687 8.35908,14.47932 15.43708,26.53268 15.72889,26.78523 0.40188,0.34779 0.65297,0.39367 1.03518,0.18912 0.49128,-0.26292 0.50459,-0.97388 0.50459,-26.95126 z"
         style="fill:#e334aa;stroke-width:0.26458335" />
    </g>
  </g>
</svg>
