<svg id="svg8" xmlns="http://www.w3.org/2000/svg" viewBox="0 0 343.96 337.93"><defs><style>.cls-1{fill:#ea9999;}.cls-2{fill:#dd5353;}.cls-3{fill:#5b5b5b;}.cls-4{fill:#cf0000;}</style></defs><title>keras</title><g id="layer1"><g id="g4743"><path id="path4755" class="cls-1" d="M.28,336.56C0,335.88-.08,259.94.06,167.81L.32.31,170.72.06c125.1-.19,170.75.05,171.75.87,1.88,1.57,2,333.8.15,335.68S1,338.35.28,336.56ZM123,263.16c1.7-1.54,1.83-3.93,1.83-33.82V197.17L139.21,183c7.91-7.8,14.81-14.18,15.33-14.18,1.54,0,4.49,3.81,14.29,18.5,5.14,7.7,11.66,17.38,14.5,21.5s12.46,18.42,21.37,31.75l16.21,24.25h12.76c13,0,15.15-.57,15.15-4,0-.86-9.56-15.39-21.25-32.29l-36.25-52.41c-17.88-25.86-17.85-25.8-16.62-28.12.53-1,16.32-16.94,35.11-35.49,27.47-27.12,34.09-34.15,33.83-36-.31-2.21-.64-2.26-14.32-2.53l-14-.26-44,44c-24.2,24.21-44.56,44-45.25,44-1,0-1.26-9-1.26-42.06,0-27.09-.37-42.76-1-44-.92-1.72-2.18-1.94-11.3-1.94-6.65,0-10.69.43-11.47,1.2s-1.2,23.26-1.2,94.45c0,87.76.1,93.31,1.75,94.27,1,.56,5.77,1,10.67,1,6.93,0,9.33-.34,10.75-1.62Z"/><path id="path4751" class="cls-2" d="M1.28,335.57c-.26-.69-.36-76.18-.22-167.76L1.32,1.31h341v335L172,336.57c-135.7.2-170.38,0-170.76-1Zm122.54-71.76c1.92-1.91,2-3.33,2-34.27V197.27L140,183.79c7.8-7.41,14.6-13.48,15.11-13.48,1.1,0,4.89,5.46,38.17,55,13.66,20.35,25.53,37.79,26.36,38.75,2.17,2.53,25.58,2.61,28.36.1a5.51,5.51,0,0,0,1.83-3.32c0-.91-6-10.41-13.43-21.09-13.49-19.54-33.21-48.1-51.64-74.82-5.46-7.92-9.93-14.69-9.93-15.06s15.75-16.38,35-35.59c23.58-23.52,35-35.59,35-37,0-4-1.74-4.48-15.95-4.48H215.31l-44,44c-24.19,24.2-44.33,44-44.74,44s-.76-18.8-.76-41.77c0-36.2-.21-42.08-1.56-44-1.44-2.07-2.32-2.23-12.46-2.23-9.76,0-11,.21-11.94,1.94-.7,1.29-1,32.74-1,94.94v93l2.22,1.56c1.63,1.13,4.73,1.55,11.5,1.55,7.95,0,9.57-.28,11.28-2Z"/><path id="path4749" class="cls-3" d="M1.82,168.81V1.81l169.75.25,169.75.25v333l-169.75.26-169.75.25Zm122.93,95.37c2-2.54,2.07-3.78,2.07-34.27V198.29l13.41-13.38c8-8,14-13.17,14.75-12.86,1.42.56,6.62,8.07,41.31,59.76,12,17.88,22.51,33.07,23.36,33.75,1.07.86,5.7,1.25,14.81,1.25,12.56,0,13.33-.11,14.8-2.22a8.72,8.72,0,0,0,1.56-4c0-1-16.94-26.37-37.64-56.38l-37.63-54.55L211.16,114c30.79-30.84,35.52-36,35-38-1.2-4.58-4.1-5.38-18.3-5l-13.06.33-43.74,43.78-43.74,43.77-.5-42c-.46-38.58-.64-42.13-2.28-43.77-1.49-1.49-3.54-1.79-12.15-1.79-8.78,0-10.68.29-12.46,1.91l-2.11,1.9V263.7l2.22,1.56c1.66,1.16,4.81,1.55,12.43,1.55,9.83,0,10.28-.09,12.28-2.63Z"/><path id="path4747" class="cls-4" d="M1.82,168.81V1.81l169.75.25,169.75.25v333l-169.75.26-169.75.25Zm122.93,95.37c2-2.54,2.07-3.78,2.07-34.27V198.29l13.41-13.38c8-8,14-13.17,14.75-12.86,1.42.56,6.62,8.07,41.31,59.76,12,17.88,22.51,33.07,23.36,33.75,1.07.86,5.7,1.25,14.81,1.25,12.56,0,13.33-.11,14.8-2.22a8.72,8.72,0,0,0,1.56-4c0-1-16.94-26.37-37.64-56.38l-37.63-54.55L211.16,114c30.79-30.84,35.52-36,35-38-1.2-4.58-4.1-5.38-18.3-5l-13.06.33-43.74,43.78-43.74,43.77-.5-42c-.46-38.58-.64-42.13-2.28-43.77-1.49-1.49-3.54-1.79-12.15-1.79-8.78,0-10.68.29-12.46,1.91l-2.11,1.9V263.7l2.22,1.56c1.66,1.16,4.81,1.55,12.43,1.55,9.83,0,10.28-.09,12.28-2.63Z"/></g></g></svg>