<?xml version="1.0" encoding="utf-8"?>
<!-- Generator: Adobe Illustrator 22.1.0, SVG Export Plug-In . SVG Version: 6.00 Build 0)  -->
<svg version="1.1" id="Layer_1" xmlns="http://www.w3.org/2000/svg" xmlns:xlink="http://www.w3.org/1999/xlink" x="0px" y="0px"
	 viewBox="0 0 399.8 450.7" style="enable-background:new 0 0 399.8 450.7;" xml:space="preserve">
<style type="text/css">
	.st0{fill:#83CD29;}
</style>
<g>
	<path class="st0" d="M199.9,0c-6.1,0-12,1.3-17.2,4.2L17.2,99.8C6.5,105.9,0,117.6,0,130v190.8c0,12.4,6.5,24,17.2,30.2l43.2,24.9
		c21,10.3,28.7,10.2,38.3,10.2c31.1,0,48.8-18.9,48.8-51.6V146.1c0-2.7-2.3-4.6-4.9-4.6h-20.7c-2.7,0-4.9,1.9-4.9,4.6v188.3
		c0,14.5-15.1,29.1-39.7,16.9l-45-26.3c-1.6-0.9-2.8-2.4-2.8-4.2V130c0-1.8,1.2-3.6,2.8-4.6l165.1-95.2c1.5-0.9,3.4-0.9,4.9,0
		l165.1,95.2c1.6,0.9,2.8,2.7,2.8,4.6v190.8c0,1.8-0.9,3.7-2.5,4.6l-165.5,95.2c-1.4,0.8-3.4,0.8-4.9,0l-42.5-25.3
		c-1.3-0.7-2.9-0.7-4.2,0c-11.7,6.7-13.9,7.4-24.9,11.2c-2.7,0.9-6.8,2.4,1.4,7l55.5,32.7c5.2,3,11.2,4.6,17.2,4.6
		c6,0,12-1.5,17.2-4.6L382.6,351c10.7-6.2,17.2-17.8,17.2-30.2V130c0-12.4-6.5-24-17.2-30.2L217.1,4.2C211.9,1.3,206,0,199.9,0
		L199.9,0z"/>
	<path class="st0" d="M244.2,136.3c-47.1,0-75.2,20.1-75.2,53.4c0,36.2,27.9,46.1,73.1,50.6c54.1,5.3,58.3,13.2,58.3,23.9
		c0,18.5-14.7,26.3-49.5,26.3c-43.7,0-53.3-10.9-56.6-32.7c-0.4-2.3-2.2-4.2-4.6-4.2h-21.4c-2.6,0-4.9,2.3-4.9,4.9
		c0,27.8,15.1,60.8,87.5,60.8c52.4,0,82.6-20.6,82.6-56.6c0-35.7-24.4-45.3-75.2-52c-51.3-6.8-56.2-10.1-56.2-22.1
		c0-9.9,4.2-23.2,42.2-23.2c34,0,46.5,7.3,51.6,30.2c0.4,2.1,2.3,3.9,4.6,3.9h21.4c1.3,0,2.6-0.8,3.5-1.8c0.9-1,1.5-2.1,1.4-3.5
		C323.4,154.9,297.1,136.3,244.2,136.3L244.2,136.3z"/>
</g>
</svg>
