<?xml version="1.0" encoding="utf-8"?>
<!-- Generator: Adobe Illustrator 22.1.0, SVG Export Plug-In . SVG Version: 6.00 Build 0)  -->
<svg version="1.1"
	 id="svg8" xmlns:cc="http://creativecommons.org/ns#" xmlns:dc="http://purl.org/dc/elements/1.1/" xmlns:rdf="http://www.w3.org/1999/02/22-rdf-syntax-ns#" xmlns:svg="http://www.w3.org/2000/svg"
	 xmlns="http://www.w3.org/2000/svg" xmlns:xlink="http://www.w3.org/1999/xlink" x="0px" y="0px" viewBox="0 0 83.4 101"
	 style="enable-background:new 0 0 83.4 101;" xml:space="preserve">
<style type="text/css">
	.st0{fill:url(#path1948_1_);}
	.st1{fill:url(#path1950_1_);}
	.st2{opacity:0.4438;fill:url(#path1894_1_);enable-background:new    ;}
</style>
<g id="layer1">
	<g id="g2303" transform="matrix(0.26458333,0,0,0.26458333,80.035587,127.32563)">
		
			<linearGradient id="path1948_1_" gradientUnits="userSpaceOnUse" x1="2329.7051" y1="626.2921" x2="2438.7212" y2="532.4982" gradientTransform="matrix(0.4219 0 0 -0.426 -1293.1432 -205.3725)">
			<stop  offset="0" style="stop-color:#5A9FD4"/>
			<stop  offset="1" style="stop-color:#306998"/>
		</linearGradient>
		<path id="path1948" class="st0" d="M-146.8-481.2c-13,0.1-25.4,1.2-36.3,3.1c-32.2,5.7-38,17.6-38,39.5v29h76v9.7h-76h-28.5
			c-22.1,0-41.4,13.3-47.5,38.5c-7,29-7.3,47,0,77.2c5.4,22.5,18.3,38.5,40.4,38.5h26.1v-34.7c0-25.1,21.7-47.2,47.5-47.2h75.9
			c21.1,0,38-17.4,38-38.6v-72.4c0-20.6-17.4-36.1-38-39.5C-120.3-480.3-133.8-481.3-146.8-481.2z M-187.9-457.9
			c7.9,0,14.3,6.5,14.3,14.5c0,8-6.4,14.4-14.3,14.4c-7.9,0-14.3-6.5-14.3-14.4C-202.2-451.4-195.8-457.9-187.9-457.9z"/>
		
			<linearGradient id="path1950_1_" gradientUnits="userSpaceOnUse" x1="2901.0295" y1="57.2386" x2="2862.0999" y2="112.3174" gradientTransform="matrix(0.4219 0 0 -0.426 -1293.1432 -205.3725)">
			<stop  offset="0" style="stop-color:#FFD43B"/>
			<stop  offset="1" style="stop-color:#FFE873"/>
		</linearGradient>
		<path id="path1950" class="st1" d="M-59.7-400v33.8c0,26.2-22.2,48.2-47.5,48.2h-75.9c-20.8,0-38,17.8-38,38.6v72.4
			c0,20.6,17.9,32.7,38,38.6c24.1,7.1,47.1,8.4,75.9,0c19.1-5.5,38-16.7,38-38.6v-29h-75.9v-9.7h75.9h38c22.1,0,30.3-15.4,38-38.5
			c7.9-23.8,7.6-46.7,0-77.2c-5.5-22-15.9-38.5-38-38.5H-59.7z M-102.4-216.7c7.9,0,14.3,6.5,14.3,14.4c0,8-6.4,14.5-14.3,14.5
			c-7.9,0-14.3-6.5-14.3-14.5C-116.7-210.3-110.3-216.7-102.4-216.7z"/>
		
			<radialGradient id="path1894_1_" cx="-5919.813" cy="-1885.92" r="29.0369" gradientTransform="matrix(1.311792e-08 -0.18 -0.791 -2.843659e-07 -1636.0405 -1184.5757)" gradientUnits="userSpaceOnUse">
			<stop  offset="0" style="stop-color:#B8B8B8;stop-opacity:0.498"/>
			<stop  offset="1" style="stop-color:#7F7F7F;stop-opacity:0"/>
		</radialGradient>
		<path id="path1894" class="st2" d="M-42.4-119.2c0,10.9-45.6,19.8-101.8,19.8c-56.3,0-101.9-8.8-101.9-19.7c0,0,0,0,0,0
			c0-10.9,45.6-19.8,101.8-19.8S-42.4-130.2-42.4-119.2C-42.4-119.2-42.4-119.2-42.4-119.2z"/>
	</g>
</g>
</svg>
