<?xml version="1.0" encoding="utf-8"?>
<!-- Generator: Adobe Illustrator 22.1.0, SVG Export Plug-In . SVG Version: 6.00 Build 0)  -->
<svg version="1.1"
	 id="svg8" xmlns:cc="http://creativecommons.org/ns#" xmlns:dc="http://purl.org/dc/elements/1.1/" xmlns:rdf="http://www.w3.org/1999/02/22-rdf-syntax-ns#" xmlns:svg="http://www.w3.org/2000/svg"
	 xmlns="http://www.w3.org/2000/svg" xmlns:xlink="http://www.w3.org/1999/xlink" x="0px" y="0px" viewBox="0 0 367 391.9"
	 style="enable-background:new 0 0 367 391.9;" xml:space="preserve">
<style type="text/css">
	.st0{fill:#F0D8A7;}
	.st1{fill:#E5B08F;}
	.st2{fill:#EDC65F;}
	.st3{fill:#F6BD3A;}
	.st4{fill:#EBAD4F;}
	.st5{fill:#EB8C23;}
	.st6{fill:#E35B2C;}
</style>
<g id="layer1">
	<g id="g4685" transform="translate(16.135045,-2.6564308)">
		<path id="path4699" class="st0" d="M116.4,381.1c-12.6-7.4-24.2-14.3-25.8-15.4l-2.8-2v-88.5c0-48.7-0.2-88.5-0.5-88.5
			c-0.3,0-6.4,3.5-13.7,7.7c-27.8,16.1-35.3,20.3-36.2,20.3c-1.2,0-49.6-27.8-51.9-29.8c-1.6-1.4-1.7-4.2-1.7-31.2
			c0-27,0.2-29.8,1.7-31.2c1-0.8,8.3-5.2,16.3-9.8c25.3-14.5,31.7-18.2,68.5-39.5C167.9,16.7,192.5,2.7,193.8,2.7
			c0.7,0,13.9,7.4,29.4,16.4c15.5,9,50.2,29.1,77.2,44.7c27,15.6,49.3,28.8,49.7,29.4c0.4,0.6,0.7,14.5,0.8,30.8l0,29.7l-3.3,2.4
			c-3.2,2.4-46.4,27.2-49.1,28.3c-0.8,0.3-20.7-10.6-44.3-24.2c-58.9-34-57.8-33.4-58.6-33.4c-0.4,0-0.6,12.7-0.5,28.2l0.3,28.2
			l9.5,5.6c5.2,3.1,16,9.3,24,13.9c8,4.6,15.3,9,16.3,9.8c1.6,1.4,1.7,4.1,1.7,31.1c0,16.3-0.3,30.1-0.8,30.7
			c-0.4,0.6-12,7.6-25.7,15.6l-25,14.5l-0.5,30.1c-0.3,18.1-0.9,30.4-1.5,31c-2.8,2.5-50.7,29.2-52.2,29.1
			C140.2,394.5,129,388.5,116.4,381.1L116.4,381.1z"/>
		<path id="path4697" class="st1" d="M119,381.6c-11.2-6.5-22.6-13.2-25.3-14.9l-4.9-3v-89.2c0-87.7,0-89.1-1.9-88.7
			c-1.1,0.3-12.5,6.6-25.5,14.1c-12.9,7.5-23.9,13.6-24.3,13.6c-0.4,0-12.3-6.7-26.3-14.8l-25.5-14.7v-29.9v-29.9l7-4.2
			c3.9-2.3,22.1-12.9,40.5-23.5C70.3,75,123.5,44.3,164.7,20.5c15-8.7,28-15.8,28.8-15.8c0.8,0,9,4.3,18.1,9.6
			C231.9,26,321.2,77.5,335.9,86c5.8,3.3,11.3,6.7,12.3,7.5c1.6,1.4,1.7,3.8,1.5,31l-0.3,29.5l-24,13.9c-13.2,7.7-25,14.4-26.1,14.9
			c-1.8,0.9-8.3-2.5-45-23.8c-59.4-34.3-57.7-33.4-59.1-33.4c-1,0-1.3,6.5-1.3,29.4v29.4l22.3,12.8c12.2,7,23.9,13.9,26,15.2
			l3.8,2.4l-0.3,29.7l-0.3,29.7L219.6,289l-25.8,14.9v29.8c0,22.6-0.3,30-1.3,30.8c-3.4,2.7-50.4,29.2-51.7,29.1
			C140.1,393.5,130.2,388.2,119,381.6L119,381.6z"/>
		<path id="path4695" class="st2" d="M115.9,378.7c-12.9-7.6-24-14.3-24.7-14.9c-1-1-1.3-18.8-1.3-90.2c0-79.2-0.2-89-1.5-89
			c-0.8,0-7.5,3.4-14.8,7.7c-33.2,19.2-35.4,20.4-37.3,19.7c-1-0.4-8.2-4.4-15.9-8.9c-7.7-4.5-18.1-10.5-23.1-13.4
			c-5-2.8-9.6-5.8-10.3-6.5c-0.8-1-1.1-9.9-0.9-30.2l0.3-28.9l6-3.8c3.3-2.1,20.8-12.4,39-22.8c46.5-26.7,90.8-52.3,98.5-56.8
			c41.1-23.9,62.4-36,63.6-36c1.2,0,79.1,44.5,137.4,78.5l17.5,10.2l0.3,30.1l0.3,30.1l-6.8,3.9c-3.7,2.1-14.2,8.2-23.3,13.5
			c-9.1,5.3-17.7,10.1-19,10.7c-2.6,1.2,0.9,3.1-81.3-44.4c-12-7-22.7-12.6-23.7-12.6c-1.8,0-1.8,1.5-1.8,28.8
			c0,15.8,0.4,29.3,0.8,30c0.4,0.7,9.3,6.2,19.7,12.2c10.4,6,21.6,12.6,24.9,14.7l6,3.8l0.3,29.6l0.3,29.6l-6.8,4
			c-16.6,9.8-24.4,14.3-34,19.7c-5.6,3.2-10.3,5.8-10.5,5.9c-0.1,0.1-0.5,13.8-0.8,30.6l-0.5,30.5l-24.5,14.2
			c-13.5,7.8-25.4,14.2-26.5,14.2C140.3,392.5,128.8,386.3,115.9,378.7L115.9,378.7z"/>
		<path id="path4693" class="st3" d="M115.9,378.7c-12.9-7.6-24-14.3-24.7-14.9c-1-1-1.3-18.8-1.3-90.2c0-82.3-0.1-89-1.7-89
			c-0.9,0-12.6,6.3-25.9,14c-20.7,12-24.6,13.9-26.6,13.1c-1.3-0.5-7.1-3.7-12.9-7.1c-5.8-3.4-15.7-9.1-22-12.7s-12.3-7.2-13.2-8
			c-1.6-1.4-1.7-4.2-1.7-30.3v-28.8l5.8-2.9c3.2-1.6,13-7.1,21.7-12.2c8.8-5.1,25.5-14.7,37-21.3s24.6-14.1,29-16.7
			c20.7-12.2,43.4-25.4,57-33c2.7-1.5,9.1-5.2,14-8.1c16.5-9.7,20.9-12.3,32.1-18.6l11.1-6.3l15.9,9.1c8.7,5,17.1,10,18.5,11
			c1.5,1,3,1.9,3.4,1.9c0.4,0,5.9,3.1,12.3,6.9c6.4,3.8,16.4,9.6,22.1,12.8c5.8,3.3,25.1,14.4,43,24.8
			c17.9,10.3,34.2,19.7,36.3,20.8l3.8,2v29.2v29.2L323.5,168c-13.9,8.1-25.6,14.6-25.9,14.6c-0.5,0-18.9-10.5-79.2-45.4
			c-12-7-22.7-12.6-23.8-12.6c-1.8,0-1.8,1.5-1.8,29.8c0,16.4,0.4,30.3,0.8,30.9c0.4,0.7,4.2,3.1,8.4,5.5
			c4.2,2.4,15.5,8.8,25.2,14.3l17.6,10l-0.2,29.3l-0.2,29.3l-24.8,14.3c-13.7,7.9-25.1,14.6-25.5,15c-0.4,0.4-0.9,14.2-1.2,30.7
			l-0.5,30.1l-24.8,14.3c-13.6,7.9-25.6,14.3-26.5,14.2C140.1,392.5,128.8,386.3,115.9,378.7L115.9,378.7z"/>
		<path id="path4691" class="st4" d="M115.9,378.7c-12.9-7.6-24-14.3-24.7-14.9c-1-1-1.3-18.8-1.3-90.2c0-82.3-0.1-89-1.7-89
			c-0.9,0-12.6,6.3-25.9,14c-20.7,12-24.6,13.9-26.6,13.1c-1.3-0.5-7.1-3.7-12.9-7.1c-5.8-3.4-15.7-9.1-22-12.7s-12.3-7.2-13.2-8
			c-1.6-1.4-1.7-4.2-1.7-30.4c0-32.3-0.1-32,6.7-27.4c2.1,1.4,4.1,2.6,4.4,2.6s7,3.8,14.8,8.5c7.8,4.7,14.4,8.5,14.7,8.5
			c0.3,0,3.2,1.6,6.5,3.6l5.9,3.6l14.8-8.4c16.6-9.5,96.9-55.9,122.7-71c9.3-5.4,17.8-9.8,18.8-9.8c1.6,0,8.5,3.7,25,13.5
			c4.1,2.4,11.8,6.9,27.4,15.8c10.9,6.2,26.4,15.2,33.9,19.7c1.6,1,6.3,3.7,10.3,6l7.3,4.2l23.9-13.7c13.4-7.7,23.6-14.1,23.3-14.7
			c-0.3-0.6,0-0.8,0.8-0.5c1.1,0.4,1.4,5.8,1.7,30l0.3,29.5L323.6,168c-13.9,8.1-25.6,14.7-25.9,14.7c-0.5,0-18.9-10.5-79.2-45.4
			c-12-7-22.7-12.6-23.8-12.6c-1.8,0-1.9,1.2-1.6,30.4c0.2,19.9-0.1,30.3-0.7,30c-1.3-0.5-46.7,25.8-47.2,27.3
			c-0.4,1.3,2.3,3.2,18.2,12.3c6,3.5,14.4,8.3,18.5,10.8c4.1,2.5,8.7,5.2,10.1,6c2.5,1.5,2.9,1.4,8-1.4
			c18.4-10.1,41.8-24.1,41.8-25.2c0-0.7,0.7-1,1.5-0.6c1.3,0.5,1.5,4.5,1.2,30l-0.3,29.5l-24.8,14.3c-13.7,7.9-25.1,14.6-25.5,15
			c-0.4,0.4-0.9,14.2-1.2,30.7l-0.5,30.1l-24.8,14.3c-13.6,7.9-25.6,14.3-26.5,14.2C140.1,392.5,128.8,386.3,115.9,378.7
			L115.9,378.7z"/>
		<path id="path4689" class="st5" d="M115.3,377.8l-24-13.9l-0.5-89.6c-0.3-61.7-0.8-89.9-1.6-90.6c-0.8-0.8-6.8,2.3-21,10.5
			c-11,6.4-22.7,13-26,14.7l-6.1,3.1l-23.9-13.8c-13.2-7.6-24.5-14.5-25.2-15.4c-1-1.2-1.3-7.7-1.1-28.8c0.1-15,0.5-27.7,0.9-28.3
			c0.5-0.7,5.6,1.7,15.1,7.1c7.9,4.5,19.3,11,25.3,14.5l10.9,6.2l21.1-12.2c11.6-6.7,45.8-26.5,76.1-44
			c30.3-17.5,55.9-32.2,57.1-32.8c1.6-0.7,3.4-0.2,8,2.5c61.1,35.5,96.6,55.7,97.6,55.7c0.7,0,11.9-6.1,24.8-13.5
			c12.9-7.4,23.8-13.5,24.3-13.5c0.4,0,0.6,12.9,0.5,28.7l-0.3,28.7l-8.5,4.9c-44.5,25.7-41.1,24-44.5,22.4
			c-1.7-0.8-24.6-13.9-50.9-29.1c-26.3-15.2-48.6-27.6-49.7-27.6c-1.9,0-1.9,0.9-1.9,30.4v30.4l-24.2,14
			c-13.3,7.7-24.3,14.4-24.5,14.8c-0.2,0.5,6.1,4.6,14,9c7.8,4.5,19.4,11.1,25.6,14.7l11.4,6.6l4.1-2.4c2.3-1.3,12.7-7.4,23.2-13.4
			c10.5-6.1,19.9-11.4,20.8-11.7c1.5-0.6,1.6,2,1.6,27.9c0,21.6-0.3,28.7-1.2,29.5c-0.7,0.6-11.6,7-24.3,14.3
			c-12.6,7.3-23.8,13.9-24.7,14.8c-1.6,1.4-1.8,4.2-1.8,31.1l0,29.6l-20.7,12c-24.9,14.4-28.8,16.5-30.5,16.5
			C139.9,391.7,128.5,385.4,115.3,377.8L115.3,377.8z"/>
		<path id="path4687" class="st6" d="M115.3,377.8l-24-13.9l-0.5-89.7c-0.3-49.3-0.2-90.1,0.1-90.6c0.8-1.3,47-27.9,48.5-27.9
			c0.7,0,1.5,0.8,1.9,1.7c0.4,0.9,0.6,14,0.5,29.1c-0.1,22,0.1,27.6,1.2,28.7c0.8,0.7,11.7,7.2,24.4,14.5
			c12.6,7.2,23.8,14.1,24.8,15.2c1.6,1.9,1.8,4.7,1.7,29.4c-0.1,20.2-0.4,27.4-1.3,27.7c-0.7,0.2-8.6-3.8-17.7-9.1
			c-9.1-5.2-19.5-11.2-23.2-13.4c-7.4-4.2-9.8-4.8-9.8-2.1c0,1,0,27.1,0,58c0,45.7-0.2,56.3-1.3,56.3
			C139.9,391.7,128.5,385.4,115.3,377.8L115.3,377.8z M11.5,197.7c-13.1-7.6-24.3-14.5-24.8-15.2c-1.1-1.6-0.8-55.7,0.3-56.4
			c0.4-0.3,2.5,0.6,4.6,1.9c2.1,1.3,12.9,7.7,24.1,14.2s20.5,12.2,20.7,12.9c1,2.7,0.9,56.6-0.1,56.6
			C35.8,211.6,24.6,205.3,11.5,197.7L11.5,197.7z M277.3,170.7c-10.4-6-33.3-19.2-50.9-29.4l-32-18.5l-0.3-28.6
			c-0.2-19.4,0.1-28.6,0.8-28.6c0.6,0,8.1,4.1,16.8,9.1c23.9,13.9,45.8,26.5,66.2,38.3c10.2,5.9,18.8,11.2,19.2,11.9
			c1.1,1.7,1,55.5-0.1,56.1C296.5,181.4,287.7,176.7,277.3,170.7L277.3,170.7z"/>
	</g>
</g>
</svg>
