<svg id="svg8" xmlns="http://www.w3.org/2000/svg" viewBox="0 0 640.82 640.82"><defs><style>.cls-1{fill:#4899c3;}</style></defs><title>ts-logo</title><g id="layer1"><path id="path4566" class="cls-1" d="M.28,639.75C0,639.07-.08,495,.06,319.5L.32.5,320.57.25,640.82,0l-.25,320.25-.25,320.25-319.78.25c-255.3.21-319.88,0-320.26-1ZM508.82,587c39.54-4.53,69.1-27,77.74-59,1.35-5,1.76-10.43,1.76-23.5,0-14.77-.3-18-2.3-24.94-3.38-11.68-9.61-22.9-17.17-30.91-14.09-14.94-29.63-24.17-72-42.78-16.8-7.38-25.59-12.56-30.44-17.92-5.3-5.87-6.92-10.21-6.91-18.51,0-5.9.5-8,2.93-12.43a25.45,25.45,0,0,1,15.38-12c5.88-1.64,16.29-1.16,23.56,1.08,5.72,1.77,7.66,3,12.85,8.29,3.37,3.41,7.48,7.94,9.15,10.07,2.83,3.61,3.19,3.78,5.5,2.57,4.71-2.47,39.72-26,41-27.58,1.61-1.94,1-3-8.06-14.53-11.25-14.29-27.43-25.14-43.72-29.34-9.94-2.55-31.5-3.88-43.48-2.68-37.6,3.79-65.13,27.12-72.47,61.44-1.89,8.83-1.24,32.1,1.15,41.07,3.77,14.18,15.44,31.62,27.63,41.28s22.65,15.35,50.89,27.81C519.33,481,528,488,529.53,502.51c.94,9.09-1.2,15.14-7.62,21.57-6.69,6.68-13.52,9.59-26.09,11.12A68.66,68.66,0,0,1,464.59,531c-9.85-3.73-25.14-17.39-31.49-28.13-1-1.63-2.25-2.84-2.86-2.69-1.94.49-47.42,27.15-47.42,27.81,0,1.63,12.67,19.58,17.51,24.81,13.2,14.25,33.06,25.48,55.46,31.32,13.18,3.45,36.79,4.71,53,2.85ZM282.57,466l.26-118h83l-.26-26.14-.27-26.15-95.5-.49c-52.52-.27-103-.15-112.25.25l-16.75.75V348h83V584.5l29.25-.23,29.25-.23Z"/></g></svg>